<svg xmlns="http://www.w3.org/2000/svg" viewBox="0 0 200 200" width="200" height="200">
  <rect width="200" height="200" fill="#fff" stroke="#cbd5e1" stroke-width="2"/>
  <!-- Pseudo-QR grid -->
  <g fill="#0f172a">
    <rect x="20" y="20" width="40" height="40"/>
    <rect x="30" y="30" width="20" height="20" fill="#fff"/>
    <rect x="35" y="35" width="10" height="10"/>
    <rect x="140" y="20" width="40" height="40"/>
    <rect x="150" y="30" width="20" height="20" fill="#fff"/>
    <rect x="155" y="35" width="10" height="10"/>
    <rect x="20" y="140" width="40" height="40"/>
    <rect x="30" y="150" width="20" height="20" fill="#fff"/>
    <rect x="35" y="155" width="10" height="10"/>
    <!-- random dots -->
    <rect x="70" y="25" width="8" height="8"/>
    <rect x="80" y="35" width="8" height="8"/>
    <rect x="95" y="25" width="8" height="8"/>
    <rect x="110" y="40" width="8" height="8"/>
    <rect x="120" y="25" width="8" height="8"/>
    <rect x="75" y="50" width="8" height="8"/>
    <rect x="105" y="60" width="8" height="8"/>
    <rect x="130" y="70" width="8" height="8"/>
    <rect x="25" y="75" width="8" height="8"/>
    <rect x="40" y="85" width="8" height="8"/>
    <rect x="55" y="75" width="8" height="8"/>
    <rect x="70" y="90" width="8" height="8"/>
    <rect x="85" y="80" width="8" height="8"/>
    <rect x="100" y="95" width="8" height="8"/>
    <rect x="115" y="85" width="8" height="8"/>
    <rect x="130" y="100" width="8" height="8"/>
    <rect x="145" y="90" width="8" height="8"/>
    <rect x="160" y="105" width="8" height="8"/>
    <rect x="20" y="110" width="8" height="8"/>
    <rect x="50" y="120" width="8" height="8"/>
    <rect x="75" y="115" width="8" height="8"/>
    <rect x="95" y="130" width="8" height="8"/>
    <rect x="120" y="120" width="8" height="8"/>
    <rect x="140" y="135" width="8" height="8"/>
    <rect x="160" y="125" width="8" height="8"/>
    <rect x="70" y="145" width="8" height="8"/>
    <rect x="85" y="160" width="8" height="8"/>
    <rect x="105" y="150" width="8" height="8"/>
    <rect x="125" y="165" width="8" height="8"/>
    <rect x="145" y="155" width="8" height="8"/>
    <rect x="165" y="170" width="8" height="8"/>
  </g>
  <text x="100" y="195" text-anchor="middle" font-family="Arial" font-size="8" fill="#64748b">gcash (placeholder)</text>
</svg>
